{"title":"Every.Which.Way.But.Loose.1978.1080p.BluRay.x264.DTS-FGT","uid":12110626,"size":10549025219,"categoryP":"video","categoryS":"hd___movies","magnet":"?xt=urn:btih:166f6f1968a1a9fd7f964bbc510e0cbb8e6b3877&amp;dn=Every.Which.Way.But.Loose.1978.1080p.BluRay.x264.DTS-FGT&amp;tr=udp%3A%2F%2Ftracker.openbittorrent.com%3A80&amp;tr=udp%3A%2F%2Fopen.demonii.com%3A1337&amp;tr=udp%3A%2F%2Ftracker.coppersurfer.tk%3A6969&amp;tr=udp%3A%2F%2Fexodus.desync.com%3A6969","seeders":1,"leechers":0,"uploader":null,"files":3,"time":1436562817,"description":"Video\nID                                       : 1\nFormat                                   : AVC\nFormat/Info                              : Advanced Video Codec\nFormat profile                           : &lt;a class=&quot;__cf_email__&quot; href=&quot;/cdn-cgi/l/email-protection&quot; data-cfemail=&quot;4008292728000c746e71&quot;&gt;[email&amp;#160;protected]&lt;/a&gt;&lt;script data-cfhash='f9e31' type=&quot;text/javascript&quot;&gt;\n/* &lt;![CDATA[ */!function(){try{var t=&quot;currentScript&quot;in document?document.currentScript:function(){for(var t=document.getElementsByTagName(&quot;script&quot;),e=t.length;e--;)if(t[e].getAttribute(&quot;data-cfhash&quot;))return t[e]}();if(t&amp;&amp;t.previousSibling){var e,r,n,i,c=t.previousSibling,a=c.getAttribute(&quot;data-cfemail&quot;);if(a){for(e=&quot;&quot;,r=parseInt(a.substr(0,2),16),n=2;a.length-n;n+=2)i=parseInt(a.substr(n,2),16)^r,e+=String.fromCharCode(i);e=document.createTextNode(e),c.parentNode.replaceChild(e,c)}t.parentNode.removeChild(t);}}catch(u){}}()/* ]]&gt; */&lt;/script&gt;\nFormat settings, CABAC                   : Yes\nFormat settings, ReFrames                : 5 frames\nCodec ID                                 : V_MPEG4/ISO/AVC\nDuration                                 : 1h 54mn\nBit rate                                 : 11.6 Mbps\nWidth                                    : 1 920 pixels\nHeight                                   : 1 080 pixels\nDisplay aspect ratio                     : 16:9\nFrame rate mode                          : Constant\nFrame rate                               : 23.976 fps\nColor space                              : YUV\nChroma subsampling                       : 4:2:0\nBit depth                                : 8 bits\nScan type                                : Progressive\nBits/(Pixel*Frame)                       : 0.234\nStream size                              : 9.12 GiB (93%)\nWriting library                          : x264 core 98 r1649 20cbe10\nEncoding settings                        : cabac=1 / ref=5 / deblock=1:-3:-3 / analyse=0x3:0x113 / me=umh / subme=10 / psy=1 / psy_rd=0.90:0.05 / mixed_ref=1 / me_range=32 / chroma_me=1 / trellis=2 / 8x8dct=1 / cqm=0 / deadzone=21,11 / fast_pskip=0 / chroma_qp_offset=-3 / threads=6 / sliced_threads=0 / nr=0 / decimate=0 / interlaced=0 / constrained_intra=0 / bframes=7 / b_pyramid=2 / b_adapt=2 / b_bias=0 / direct=1 / weightb=1 / weightp=2 / keyint=250 / keyint_min=25 / scenecut=40 / intra_refresh=0 / rc=2pass / mbtree=0 / bitrate=11629 / ratetol=1.0 / qcomp=0.60 / qpmin=10 / qpmax=51 / qpstep=4 / cplxblur=20.0 / qblur=0.5 / ip_ratio=1.40 / pb_ratio=1.30 / aq=1:0.80\nLanguage                                 : English\nDefault                                  : No\nForced                                   : No\n\nAudio\nID                                       : 2\nFormat                                   : AC-3\nFormat/Info                              : Audio Coding 3\nMode extension                           : CM (complete main)\nFormat settings, Endianness              : Big\nCodec ID                                 : A_AC3\nDuration                                 : 1h 54mn\nBit rate mode                            : Constant\nBit rate                                 : 640 Kbps\nChannel(s)                               : 6 channels\nChannel positions                        : Front: L C R, Side: L R, LFE\nSampling rate                            : 48.0 KHz\nBit depth                                : 16 bits\nCompression mode                         : Lossy\nStream size                              : 525 MiB (5%)\nLanguage                                 : English\nDefault                                  : Yes\nForced                                   : No\n\nMenu\n00:00:00.000                             : en:00:00:00.000\n00:05:00.000                             : en:00:05:00.000\n00:10:00.000                             : en:00:10:00.000\n00:15:00.000                             : en:00:15:00.000\n00:20:00.000                             : en:00:20:00.000\n00:25:00.000                             : en:00:25:00.000\n00:30:00.000                             : en:00:30:00.000\n00:35:00.000                             : en:00:35:00.000\n00:40:00.000                             : en:00:40:00.000\n00:45:00.000                             : en:00:45:00.000\n00:50:00.000                             : en:00:50:00.000\n00:55:00.000                             : en:00:55:00.000\n01:00:00.000                             : en:01:00:00.000\n01:05:00.000                             : en:01:05:00.000\n01:10:00.000                             : en:01:10:00.000\n01:15:00.000                             : en:01:15:00.000\n01:20:00.000                             : en:01:20:00.000\n01:25:00.000                             : en:01:25:00.000\n01:30:00.000                             : en:01:30:00.000\n01:35:00.000                             : en:01:35:00.000\n01:40:00.000                             : en:01:40:00.000\n01:45:00.000                             : en:01:45:00.000\n01:50:00.000                             : en:01:50:00.000","torrent":{"xt":"urn:btih:166f6f1968a1a9fd7f964bbc510e0cbb8e6b3877","amp;dn":"Every.Which.Way.But.Loose.1978.1080p.BluRay.x264.DTS-FGT","amp;tr":["udp%3A%2F%2Ftracker.openbittorrent.com%3A80","udp%3A%2F%2Fopen.demonii.com%3A1337","udp%3A%2F%2Ftracker.coppersurfer.tk%3A6969","udp%3A%2F%2Fexodus.desync.com%3A6969"],"infoHash":"166f6f1968a1a9fd7f964bbc510e0cbb8e6b3877","infoHashBuffer":{"type":"Buffer","data":[22,111,111,25,104,161,169,253,127,150,75,188,81,14,12,187,142,107,56,119]},"announce":[],"urlList":[]}}